<svg id="Capa_1" enable-background="new 0 0 512 512" height="512" viewBox="0 0 512 512" width="512" xmlns="http://www.w3.org/2000/svg"><g><g><path d="m445.002 234.727h-154.527v-41.207h154.527c11.379 0 20.604 9.225 20.604 20.604 0 11.378-9.225 20.603-20.604 20.603z" fill="#7acefa"/></g><g><path d="m355.393 487.489c-6.33-31.767-24.73-59.178-50.212-77.266h-144.219c-25.482 18.087-43.882 45.499-50.212 77.266-2.53 12.696 7.29 24.511 20.235 24.511h29.977l73.974-20.571 70.251 20.571h29.971c12.945 0 22.765-11.815 20.235-24.511z" fill="#d69a8a"/></g><g><path d="m233.071 387.271c-26.869 0-51.749 8.501-72.109 22.953v101.776h144.225v-101.772c-20.361-14.454-45.244-22.957-72.116-22.957z" fill="#fbf1cf"/></g><g><path d="m233.075 483.319v-96.048c-.001 0-.002 0-.003 0-26.869 0-51.749 8.501-72.109 22.953v101.776h72.113c-7.92 0-14.341-6.421-14.341-14.341s6.419-14.34 14.34-14.34z" fill="#fae0bd"/></g><g><circle cx="233.075" cy="400.358" fill="#d69a8a" r="41.754"/></g><g><g><path d="m233.075 449.611c-27.159 0-49.254-22.095-49.254-49.254 0-2.116.136-4.249.405-6.339.528-4.108 4.284-7.009 8.396-6.482 4.108.528 7.01 4.287 6.482 8.396-.188 1.458-.283 2.947-.283 4.426 0 18.888 15.366 34.254 34.254 34.254s34.254-15.366 34.254-34.254c0-1.453-.092-2.917-.273-4.35-.52-4.109 2.39-7.862 6.5-8.382 4.112-.514 7.863 2.39 8.382 6.5.26 2.055.392 4.152.392 6.232-.001 27.158-22.097 49.253-49.255 49.253z" fill="#eec076"/></g></g><g><circle cx="382.582" cy="250.984" fill="#e1ac9a" r="37.17"/></g><g><circle cx="83.564" cy="250.984" fill="#d69a8a" r="37.17"/></g><g><circle cx="233.075" cy="250.981" fill="#e7beaf" r="149.376"/></g><g><path d="m135.207 250.981c0-73.715 53.398-134.952 123.622-147.157-8.367-1.454-16.971-2.219-25.755-2.219-82.498 0-149.376 66.878-149.376 149.376s66.878 149.376 149.376 149.376c8.783 0 17.387-.765 25.755-2.219-70.224-12.205-123.622-73.442-123.622-147.157z" fill="#e1ac9a"/></g><g><path d="m233.075 0c-91.034 0-164.831 73.797-164.831 164.83v28.689c0 11.379 9.225 20.604 20.604 20.604h288.454c11.379 0 20.604-9.225 20.604-20.604v-28.689c-.001-91.033-73.798-164.83-164.831-164.83z" fill="#ceeafb"/></g><g><path d="m333.57 145.997c-80.545 0-147.586-57.776-161.967-134.142-60.584 24.368-103.359 83.673-103.359 152.975v28.689c0 11.379 9.225 20.604 20.604 20.604h288.454c11.379 0 20.604-9.225 20.604-20.604v-28.689c0-10.488-.991-20.744-2.864-30.688-18.997 7.641-39.741 11.855-61.472 11.855z" fill="#a3defe"/></g><g><path d="m248.524 172.916h-30.905c-8.534 0-15.453-6.918-15.453-15.453v-51.509c0-8.534 6.918-15.453 15.453-15.453h30.905c8.534 0 15.453 6.918 15.453 15.453v51.509c0 8.534-6.919 15.453-15.453 15.453z" fill="#565e75"/></g><g><path d="m217.619 172.916h30.905c8.534 0 15.453-6.918 15.453-15.453v-26.844c-20.043-9.351-37.89-22.615-52.565-38.811-5.442 2.391-9.246 7.821-9.246 14.146v51.509c0 8.534 6.918 15.453 15.453 15.453z" fill="#404656"/></g><g><circle cx="233.075" cy="462.715" fill="#f2d98d" r="20.604"/></g><g><path d="m233.075 462.715c0-7.622 4.149-14.261 10.302-17.825-3.033-1.757-6.545-2.779-10.302-2.779-11.379 0-20.604 9.225-20.604 20.604s9.225 20.604 20.604 20.604c3.757 0 7.269-1.022 10.302-2.779-6.153-3.564-10.302-10.203-10.302-17.825z" fill="#eec076"/></g><g><g><g><ellipse cx="151.115" cy="290.112" fill="#fff" rx="30.241" ry="24.082"/></g><g><ellipse cx="315.031" cy="290.112" fill="#fff" rx="30.241" ry="24.082"/></g></g><g><path d="m168.739 274.43c-4.142 0-7.5-3.358-7.5-7.5v-12.362c0-4.142 3.358-7.5 7.5-7.5s7.5 3.358 7.5 7.5v12.362c0 4.142-3.358 7.5-7.5 7.5z" fill="#565e75"/></g><g><path d="m297.406 274.43c-4.142 0-7.5-3.358-7.5-7.5v-12.362c0-4.142 3.358-7.5 7.5-7.5s7.5 3.358 7.5 7.5v12.362c0 4.142-3.358 7.5-7.5 7.5z" fill="#565e75"/></g><g><path d="m233.073 281.789c-8.668 0-16.911-3.754-22.615-10.3-2.721-3.123-2.396-7.86.727-10.582 3.123-2.721 7.86-2.396 10.582.727 2.854 3.275 6.976 5.154 11.307 5.154s8.453-1.879 11.307-5.154c2.721-3.124 7.459-3.448 10.582-.727s3.448 7.459.727 10.582c-5.706 6.546-13.949 10.3-22.617 10.3z" fill="#565e75"/></g></g></g></svg>